<?xml version="1.0" encoding="utf-8"?>
<!-- Generator: Adobe Illustrator 19.1.1, SVG Export Plug-In . SVG Version: 6.00 Build 0)  -->
<svg version="1.1" id="Layer_1" xmlns="http://www.w3.org/2000/svg" xmlns:xlink="http://www.w3.org/1999/xlink" x="0px" y="0px"
	 viewBox="0 0 874 280.2" style="enable-background:new 0 0 874 280.2;" xml:space="preserve">
<style type="text/css">
	.st0{fill:#D4F0FC;}
	.st1{fill:#0C84C6;}
	.st2{fill:#71BE72;}
	.st3{fill:#B6C3CC;}
	.st4{fill:#FFFFFF;}
	.st5{fill:#8B98A5;stroke:#FFFFFF;stroke-width:2;stroke-miterlimit:10;}
	.st6{fill:#ED8B00;}
	.st7{fill:#EDF3F4;}
	.st8{fill:#3ABA3A;}
	.st9{fill:#CCCCCC;}
	.st10{fill:none;stroke:#0C84C6;stroke-miterlimit:10;stroke-dasharray:2;}
	.st11{fill:#8B98A5;}
	.st12{fill:#023F61;}
	.st13{fill:#0B4863;}
	.st14{fill:#1C5E75;}
	.st15{fill:#E9C31A;}
	.st16{fill:#023247;}
	.st17{fill:#066F8C;}
	.st18{fill:#07779E;}
	.st19{fill:#087EB2;}
	.st20{fill:#209BD1;}
	.st21{fill:#DEE0E0;}
	.st22{fill:#D85932;}
	.st23{fill:#ADD4EA;}
	.st24{fill:#EDF2F4;}
	.st25{fill:#71BE72;stroke:#FFFFFF;stroke-width:2;stroke-miterlimit:10;}
	.st26{fill:#45555B;}
	.st27{fill:#E5E5E5;}
	.st28{fill:#9AAFB7;}
	.st29{fill:#90A4AE;}
	.st30{fill:#E1E8EA;}
	.st31{fill:#BCCBCE;}
	.st32{fill:#5EA55E;}
	.st33{fill:#71BE72;stroke:#FFFFFF;stroke-miterlimit:10;}
	.st34{fill:#F6CCB8;}
	.st35{fill:#FFC3A6;}
	.st36{fill:#E8EAEA;}
	.st37{fill:none;stroke:#D4F0FC;stroke-width:2;stroke-miterlimit:10;stroke-dasharray:3;}
</style>
<g>
	<circle class="st0" cx="614.9" cy="39.1" r="34.3"/>
	<g>
		<path class="st1" d="M615.1,1.7c-21,0-38,17-38,38c0,21,17,38,38,38c21,0,38-17,38-38C653,18.7,636,1.7,615.1,1.7z M615.1,71.2
			c-17.4,0-31.5-14.1-31.5-31.5c0-17.4,14.1-31.5,31.5-31.5c17.4,0,31.5,14.1,31.5,31.5C646.6,57.1,632.5,71.2,615.1,71.2z"/>
		<path class="st1" d="M628.8,54c-3.5,3.6-8.5,5.9-13.9,5.9c-5.6,0-10.7-2.4-14.2-6.2l-4,4c4.6,4.8,11.1,7.8,18.2,7.8
			c6.9,0,13.1-2.8,17.7-7.3L628.8,54z"/>
		<path class="st2" d="M615.1,15.3c-13.8,0-25.1,11.2-25.1,25.1c0,0.9,0.1,1.8,0.1,2.7c1.2-10.4,10.1-18.6,20.9-18.6
			c9.9,0,18.2,8,20.4,16h8.7c0,0,0-0.1,0-0.1C640.1,26.4,628.9,15.3,615.1,15.3z"/>
		<g>
			<path class="st3" d="M614.9,44.5c-0.9,0-1.8-0.4-2.4-1L611,42c-0.7-0.7-1-1.5-1-2.5c0-0.9,0.4-1.8,1.1-2.4l19.7-18.2
				c0.6-0.6,1.4-0.9,2.3-0.9c0.9,0,1.8,0.4,2.4,1c1.3,1.3,1.3,3.4,0.1,4.7l-18.2,19.7C616.7,44.1,615.8,44.5,614.9,44.5z"/>
			<path class="st4" d="M633.1,19.5c0.5,0,1,0.2,1.3,0.6c0.7,0.7,0.7,1.9,0.1,2.6l-18.2,19.7c-0.4,0.4-0.9,0.6-1.4,0.6
				c-0.5,0-1-0.2-1.3-0.6l-1.5-1.5c-0.8-0.8-0.7-2,0.1-2.7L631.8,20C632.2,19.7,632.6,19.5,633.1,19.5 M633.1,16.5L633.1,16.5
				c-1.2,0-2.4,0.5-3.3,1.3l-19.7,18.2c-1,0.9-1.5,2.2-1.6,3.5s0.5,2.6,1.4,3.6l1.5,1.5c0.9,0.9,2.2,1.4,3.5,1.4
				c1.4,0,2.7-0.6,3.6-1.6l18.2-19.7c1.8-1.9,1.7-4.9-0.1-6.8C635.6,17,634.4,16.5,633.1,16.5L633.1,16.5z"/>
		</g>
		<g>
			<circle class="st5" cx="615.4" cy="38.9" r="7.8"/>
		</g>
	</g>
</g>
<g>
	<g>
		<path class="st0" d="M436.5,29.6l-23.3-10.2V17l23.3-11.6V9l-19,9l19,8V29.6z"/>
	</g>
	<g>
		<path class="st0" d="M456.8,0l-13.2,35.5h-4L452.8,0H456.8z"/>
	</g>
	<g>
		<path class="st0" d="M459.8,25.9l19-7.9l-19-9V5.4L483.1,17v2.4l-23.3,10.2V25.9z"/>
	</g>
</g>
<g>
	<g>
		<rect x="212.1" y="0.8" class="st3" width="119.2" height="85.9"/>
		<g>
			<rect x="220.8" y="10.3" class="st6" width="57.2" height="2.1"/>
			<rect x="220.8" y="15.6" class="st1" width="18.4" height="2.1"/>
			<rect x="220.8" y="21" class="st7" width="29.5" height="2.1"/>
			<rect x="234.6" y="26.4" class="st6" width="17.3" height="2.1"/>
			<rect x="234.6" y="31.7" class="st6" width="17.3" height="2.1"/>
			<rect x="220.8" y="37.1" class="st1" width="16.8" height="2.1"/>
			<rect x="245.3" y="15.6" class="st7" width="31.3" height="2.1"/>
			<rect x="281" y="15.6" class="st7" width="14.9" height="2.1"/>
			<rect x="301.5" y="15.6" class="st7" width="20.1" height="2.1"/>
			<rect x="255.2" y="21" class="st7" width="17.6" height="2.1"/>
			<rect x="257.1" y="26.4" class="st7" width="10.1" height="2.1"/>
			<rect x="257.1" y="31.7" class="st7" width="17.3" height="2.1"/>
			<rect x="271.9" y="26.4" class="st7" width="19.1" height="2.1"/>
			<rect x="294.9" y="26.4" class="st7" width="10" height="2.1"/>
			<rect x="309.2" y="26.4" class="st7" width="12.5" height="2.1"/>
			<rect x="278.1" y="31.7" class="st7" width="21.8" height="2.1"/>
			<rect x="303.2" y="31.7" class="st7" width="6.5" height="2.1"/>
			<rect x="268.1" y="37.1" class="st7" width="12.5" height="2.1"/>
			<rect x="234.6" y="47.8" class="st8" width="17.3" height="2.1"/>
			<rect x="234.6" y="53.2" class="st8" width="17.3" height="2.1"/>
			<rect x="257.1" y="47.8" class="st7" width="10.1" height="2.1"/>
			<rect x="257.1" y="53.2" class="st7" width="15.5" height="2.1"/>
			<rect x="271.9" y="47.8" class="st7" width="14.7" height="2.1"/>
			<rect x="289.6" y="47.8" class="st7" width="7.8" height="2.1"/>
			<rect x="300.6" y="47.8" class="st7" width="9.6" height="2.1"/>
			<rect x="287.7" y="53.2" class="st7" width="17.3" height="2.1"/>
			<rect x="234.6" y="58.5" class="st8" width="17.3" height="2.1"/>
			<rect x="234.6" y="63.9" class="st8" width="17.3" height="2.1"/>
			<rect x="257.1" y="58.5" class="st7" width="10.1" height="2.1"/>
			<rect x="257.1" y="63.9" class="st7" width="31.6" height="2.1"/>
			<rect x="271.9" y="58.5" class="st7" width="19.1" height="2.1"/>
			<rect x="294.9" y="58.5" class="st7" width="10" height="2.1"/>
			<rect x="309.2" y="58.5" class="st9" width="12.5" height="2.1"/>
			<rect x="292.5" y="63.9" class="st9" width="17.8" height="2.1"/>
			<rect x="276.1" y="53.2" class="st7" width="7.4" height="2.1"/>
			<rect x="220.8" y="74.7" class="st1" width="18.4" height="2.1"/>
			<rect x="245.3" y="74.7" class="st7" width="17.3" height="2.1"/>
			<rect x="267.1" y="74.7" class="st7" width="8.8" height="2.1"/>
			<rect x="281.5" y="74.7" class="st6" width="27.9" height="2.1"/>
		</g>
	</g>
	<rect x="241.6" y="37.1" class="st7" width="22.5" height="2.1"/>
</g>
<g>
	<line class="st10" x1="117" y1="130.9" x2="212" y2="130.9"/>
	<g>
		<path class="st4" d="M238.1,157.8c-14.7,0-26.7-12-26.7-26.7s12-26.7,26.7-26.7s26.7,12,26.7,26.7S252.9,157.8,238.1,157.8z"/>
		<circle class="st0" cx="238.1" cy="131.1" r="23.6"/>
		<path class="st11" d="M263.5,131.1c0-14-11.4-25.4-25.4-25.4s-25.4,11.4-25.4,25.4c0,13.9,11.2,25.2,25.1,25.4c0.1,0,0.2,0,0.3,0
			c0.1,0,0.2,0,0.3,0C252.3,156.3,263.5,145,263.5,131.1z M216.2,132.8h8.1c0.1,3.2,0.5,6.1,1.2,8.8c-2,0.4-3.9,1.1-5.6,1.7
			C218,140.3,216.6,136.7,216.2,132.8z M220.1,118.7c1.6,0.7,3.5,1.3,5.6,1.7c-0.6,2.7-1.1,5.6-1.2,8.8h-8.1
			C216.6,125.4,218,121.8,220.1,118.7z M260,129.3h-8.2c-0.1-3.2-0.5-6.1-1.2-8.8c2-0.4,3.9-1.1,5.6-1.7
			C258.3,121.8,259.7,125.4,260,129.3z M248.4,129.3h-8.5v-7.6c2.6-0.1,5-0.3,7.4-0.6C247.8,123.6,248.3,126.4,248.4,129.3z
			 M239.9,118.4v-8.8c2.4,1,4.7,3.9,6.3,8.3C244.2,118,242.1,118.2,239.9,118.4z M236.4,109.5v8.8c-2.2-0.1-4.4-0.3-6.3-0.5
			C231.6,113.4,234,110.5,236.4,109.5z M236.4,121.8v7.6h-8.5c0.1-3,0.4-5.7,1.1-8.2C231.4,121.5,233.8,121.8,236.4,121.8z
			 M227.9,132.8h8.5v7.6c-2.6,0.1-5,0.3-7.4,0.6C228.5,138.5,228,135.8,227.9,132.8z M236.4,143.8v8.8c-2.4-1-4.7-3.9-6.3-8.3
			C232.1,144.1,234.2,143.9,236.4,143.8z M239.9,152.6v-8.8c2.2,0.1,4.4,0.3,6.3,0.5C244.6,148.8,242.3,151.7,239.9,152.6z
			 M239.9,140.3v-7.5h8.5c-0.1,3-0.4,5.7-1.1,8.2C244.9,140.7,242.5,140.3,239.9,140.3z M251.8,132.8h8.1c-0.3,3.9-1.6,7.6-3.7,10.6
			c-1.6-0.7-3.5-1.3-5.6-1.7C251.4,138.9,251.7,136,251.8,132.8z M253.9,115.9c-1.3,0.4-2.7,0.9-4.3,1.3c-0.8-2.5-1.9-4.6-3.2-6.3
			C249.4,112,251.8,113.7,253.9,115.9z M229.7,110.8c-1.3,1.7-2.3,3.9-3.2,6.3c-1.6-0.4-2.9-0.7-4.3-1.3
			C224.4,113.7,226.9,112,229.7,110.8z M222.3,146.2c1.3-0.4,2.7-0.9,4.3-1.3c0.8,2.5,1.9,4.6,3.2,6.3
			C226.9,150.1,224.4,148.4,222.3,146.2z M246.5,151.3c1.3-1.7,2.3-3.9,3.2-6.3c1.6,0.4,2.9,0.7,4.3,1.3
			C251.8,148.4,249.4,150.1,246.5,151.3z"/>
	</g>
	<g>
		<rect x="136.5" y="82.1" class="st12" width="58.8" height="94.5"/>
		<rect x="138.7" y="84.1" class="st13" width="54.3" height="89.8"/>
		<g>
			<rect x="156.2" y="89.6" class="st14" width="33.2" height="6.8"/>
			<circle class="st15" cx="143.9" cy="92.8" r="2.3"/>
			<circle class="st8" cx="151.1" cy="92.8" r="2.3"/>
			<rect x="140.6" y="101.3" class="st16" width="50.6" height="1.2"/>
		</g>
		<g>
			<rect x="156.2" y="108.1" class="st14" width="33.2" height="6.8"/>
			<circle class="st15" cx="143.9" cy="111.3" r="2.3"/>
			<circle class="st8" cx="151.1" cy="111.3" r="2.3"/>
			<rect x="140.6" y="119.8" class="st16" width="50.6" height="1.2"/>
		</g>
		<g>
			<rect x="156.2" y="126.6" class="st14" width="33.2" height="6.8"/>
			<circle class="st15" cx="143.9" cy="129.8" r="2.3"/>
			<circle class="st8" cx="151.1" cy="129.8" r="2.3"/>
			<rect x="140.6" y="138.3" class="st16" width="50.6" height="1.2"/>
		</g>
		<g>
			<rect x="156.2" y="145.1" class="st14" width="33.2" height="6.8"/>
			<circle class="st15" cx="143.9" cy="148.3" r="2.3"/>
			<circle class="st8" cx="151.1" cy="148.3" r="2.3"/>
			<rect x="140.6" y="156.8" class="st16" width="50.6" height="1.2"/>
		</g>
	</g>
	<g>
		<path class="st17" d="M66,143.4v9.4c0,4.9,11,8.9,25,8.9s25-4,25-8.9v-9.4H66z"/>
		<path class="st18" d="M66,131.4V142c0,4.9,11,8.9,25,8.9s25-4,25-8.9v-10.6H66z"/>
		<path class="st19" d="M66,122.4v8.8c0,4.9,11,8.9,25,8.9s25-4,25-8.9v-8.8H66z"/>
		<path class="st1" d="M66,111.4v9.9c0,4.9,11,8.9,25,8.9s25-4,25-8.9v-9.9H66z"/>
		<ellipse class="st20" cx="91.2" cy="111.7" rx="24.8" ry="8.7"/>
	</g>
	<polygon class="st1" points="206,127.8 212.4,131.5 206,135.2 	"/>
	<polygon class="st1" points="123,135.2 116.6,131.5 123,127.8 	"/>
</g>
<g>
	<g>
		<g>
			<g>
				<path class="st10" d="M169.8,201.7h-51.6c-2.4,0-4.3,1.9-4.3,4.3v21.4"/>
				<path class="st10" d="M174,228.8h-60.1v22.5c0,2.4,1.9,4.3,4.3,4.3h22.3"/>
				<circle class="st11" cx="113.9" cy="228.8" r="10"/>
				<rect x="132.7" y="193.8" class="st6" width="15.7" height="15.7"/>
				<rect x="132.7" y="220.9" class="st1" width="15.7" height="15.7"/>
				
					<rect x="132.7" y="247.7" transform="matrix(-0.7071 0.7071 -0.7071 -0.7071 420.6624 336.954)" class="st6" width="15.7" height="15.7"/>
				
					<rect x="158.5" y="193.8" transform="matrix(-0.7071 0.7071 -0.7071 -0.7071 426.65 226.7034)" class="st1" width="15.7" height="15.7"/>
				<circle class="st2" cx="166.4" cy="228.8" r="10.1"/>
			</g>
		</g>
	</g>
	<g>
		<g>
			<path class="st1" d="M197.6,250.7c-1.7,1.7-3.7,3-6,3.9l23.5,23.5c0.9,0.9,1.9,1.3,3.1,1.3c1.2,0,2.2-0.4,3.1-1.3l3.7-3.7
				c0.9-0.8,1.3-1.9,1.3-3.1c0-1.2-0.4-2.3-1.3-3.1l-23.5-23.5C200.6,247,199.3,249,197.6,250.7z M213.8,269.1
				c0-0.6,0.2-1.1,0.7-1.6c0.4-0.4,1-0.7,1.6-0.7c0.6,0,1.1,0.2,1.6,0.7c0.4,0.4,0.7,1,0.7,1.6c0,0.6-0.2,1.1-0.7,1.6
				c-0.4,0.4-1,0.7-1.6,0.7c-0.6,0-1.1-0.2-1.6-0.7C214,270.2,213.8,269.7,213.8,269.1z"/>
			<path class="st11" d="M169.8,239.6c0,0.9,0.3,2.1,0.8,3.7c1.1,3.1,3,5.6,5.7,7.5c2.7,1.9,5.7,2.9,8.9,2.9c4.3,0,7.9-1.5,10.9-4.5
				c3-3,4.5-6.7,4.5-10.9c0-4.3-1.5-7.9-4.5-10.9c-3-3-6.7-4.5-10.9-4.5c-1.3,0-2.7,0.2-4.2,0.6c-1.5,0.4-2.7,0.9-3.7,1.6
				c-0.4,0.3-0.6,0.6-0.6,1c0,0.4,0.2,0.7,0.6,1l10.1,5.8v7.7l-6.7,3.7c-0.1-0.1-1-0.6-2.7-1.7c-1.7-1-3.3-2-4.7-2.8
				c-1.4-0.8-2.2-1.2-2.4-1.2c-0.3,0-0.6,0.1-0.8,0.3C169.9,239,169.8,239.3,169.8,239.6z"/>
		</g>
	</g>
</g>
<g>
	<g>
		<rect x="669.9" y="62.7" class="st21" width="85.7" height="59.8"/>
		<rect x="669.9" y="68.3" class="st1" width="85.7" height="9"/>
		<rect x="669.9" y="62.7" class="st3" width="85.7" height="5.6"/>
		<circle class="st22" cx="673.1" cy="65.5" r="1.6"/>
		<circle class="st6" cx="678.1" cy="65.5" r="1.6"/>
		<circle class="st2" cx="683.1" cy="65.5" r="1.6"/>
		<rect x="673.9" y="80.7" class="st3" width="21" height="37.3"/>
		<rect x="699.5" y="83.8" class="st23" width="15.4" height="15.4"/>
		<rect x="717.6" y="83.8" class="st23" width="15.4" height="15.4"/>
		<rect x="735.8" y="83.8" class="st23" width="15.4" height="25.9"/>
		<rect x="699.5" y="112.6" class="st3" width="51.7" height="2.2"/>
	</g>
	<g>
		<rect x="658" y="74.5" class="st24" width="85.7" height="59.8"/>
		<rect x="658" y="80.1" class="st1" width="85.7" height="9"/>
		<rect x="658" y="74.5" class="st3" width="85.7" height="5.6"/>
		<circle class="st22" cx="661.3" cy="77.3" r="1.6"/>
		<circle class="st6" cx="666.2" cy="77.3" r="1.6"/>
		<circle class="st2" cx="671.2" cy="77.3" r="1.6"/>
		<rect x="662" y="92.6" class="st3" width="21" height="37.3"/>
		<rect x="687.7" y="95.7" class="st2" width="15.4" height="15.4"/>
		<rect x="705.8" y="95.7" class="st23" width="15.4" height="15.4"/>
		<rect x="724" y="95.7" class="st23" width="15.4" height="15.4"/>
		<rect x="687.7" y="114.5" class="st3" width="51.7" height="2.2"/>
		<rect x="691.6" y="119.4" class="st3" width="44" height="2.2"/>
		<rect x="687.7" y="124.4" class="st3" width="51.7" height="2.2"/>
	</g>
	<g>
		<g>
			<g>
				<path class="st1" d="M649.3,149.9c-1.3,0-2.5-0.5-3.4-1.4l-3.2-3.3c-0.9-0.9-1.4-2.1-1.4-3.4c0-1.3,0.5-2.5,1.4-3.5l21.7-21.7
					l0.6,1.4c0.7,1.8,1.8,3.5,3.3,4.9c1.4,1.4,3.1,2.5,4.9,3.3l1.4,0.6l-21.8,21.8C651.8,149.4,650.7,149.9,649.3,149.9z
					 M651.3,138.9c-0.3,0-0.5,0.1-0.7,0.3c-0.2,0.2-0.3,0.4-0.3,0.7c0,0.3,0.1,0.5,0.3,0.7c0.2,0.2,0.4,0.3,0.7,0.3s0.5-0.1,0.7-0.3
					c0.2-0.2,0.3-0.4,0.3-0.7c0-0.3-0.1-0.5-0.3-0.7C651.7,139,651.5,138.9,651.3,138.9z"/>
				<path class="st4" d="M664,118.4c0.8,2,1.9,3.7,3.5,5.3c1.5,1.5,3.3,2.7,5.3,3.5l-20.7,20.7c-0.7,0.7-1.7,1.1-2.7,1.1
					c-1.1,0-2-0.4-2.8-1.1l-3.2-3.3c-0.8-0.7-1.2-1.6-1.2-2.7c0-1.1,0.4-2,1.2-2.8L664,118.4 M651.3,141.8c0.5,0,1-0.2,1.4-0.6
					c0.4-0.4,0.6-0.8,0.6-1.4c0-0.5-0.2-1-0.6-1.4c-0.4-0.4-0.8-0.6-1.4-0.6c-0.5,0-1,0.2-1.4,0.6c-0.4,0.4-0.6,0.8-0.6,1.4
					c0,0.5,0.2,1,0.6,1.4C650.3,141.6,650.8,141.8,651.3,141.8 M664.7,114.8l-2.1,2.1l-20.7,20.7c-1.1,1.1-1.7,2.6-1.7,4.2
					c0,1.6,0.6,3.1,1.7,4.2l3.2,3.3l0,0l0,0c1.2,1.1,2.6,1.7,4.1,1.7c1.6,0,3-0.6,4.1-1.7l20.7-20.7l2.1-2.1l-2.8-1.1
					c-1.7-0.7-3.3-1.7-4.6-3c-1.3-1.3-2.3-2.9-3-4.6L664.7,114.8L664.7,114.8z"/>
			</g>
			<g>
				<path class="st11" d="M678.5,127.3c-4,0-7.5-1.4-10.3-4.3s-4.3-6.3-4.3-10.3c0-4,1.4-7.5,4.3-10.3c2.8-2.8,6.3-4.3,10.3-4.3
					c1.3,0,2.6,0.2,3.9,0.5c1.4,0.4,2.6,0.9,3.6,1.6c0.6,0.4,0.9,1,0.9,1.7s-0.3,1.3-0.9,1.7l-8.5,4.9v5.6l4.8,2.7
					c0.4-0.2,1-0.6,1.9-1.2c1.5-0.9,2.9-1.8,4.1-2.5c2-1.1,2.3-1.2,2.6-1.2c0.8,0,1.2,0.4,1.5,0.7c0.3,0.4,0.5,0.9,0.5,1.4
					c0,0.9-0.2,2.1-0.8,3.5c-1,2.9-2.8,5.3-5.4,7.1C684.3,126.3,681.5,127.3,678.5,127.3z"/>
				<path class="st4" d="M678.5,99.1c1.2,0,2.4,0.2,3.7,0.5c1.3,0.3,2.4,0.8,3.3,1.4c0.3,0.2,0.5,0.5,0.5,0.8c0,0.3-0.2,0.6-0.5,0.8
					l-8.9,5.1v6.8l5.9,3.2c0.1-0.1,0.9-0.6,2.4-1.5c1.5-0.9,2.9-1.7,4.1-2.5c1.2-0.7,2-1.1,2.1-1.1c0.3,0,0.5,0.1,0.7,0.3
					c0.2,0.2,0.3,0.5,0.3,0.8c0,0.8-0.2,1.9-0.7,3.2c-1,2.7-2.6,4.9-5,6.6c-2.4,1.7-5,2.5-7.8,2.5c-3.7,0-6.9-1.3-9.6-4
					c-2.7-2.7-4-5.9-4-9.6c0-3.7,1.3-6.9,4-9.6C671.5,100.4,674.7,99.1,678.5,99.1 M678.5,97.1c-4.3,0-8,1.5-11,4.6
					c-3,3-4.6,6.7-4.6,11c0,4.3,1.5,8,4.6,11c3,3,6.7,4.6,11,4.6c3.3,0,6.3-1,9-2.9c2.7-1.9,4.6-4.5,5.7-7.6
					c0.5-1.6,0.8-2.9,0.8-3.9c0-0.8-0.3-1.5-0.7-2.1c-0.6-0.7-1.3-1-2.2-1c-0.6,0-1.1,0.2-3.1,1.3c-1.3,0.7-2.7,1.6-4.2,2.5
					c-0.6,0.3-1,0.6-1.4,0.9l-3.8-2.1V109l7.9-4.5l0.1,0l0.1,0c0.9-0.6,1.4-1.5,1.4-2.5c0-1-0.5-1.9-1.4-2.5
					c-1.1-0.7-2.4-1.3-3.9-1.7C681.2,97.3,679.8,97.1,678.5,97.1L678.5,97.1z"/>
			</g>
		</g>
	</g>
</g>
<g>
	<g>
		<rect x="745.7" y="142.6" class="st24" width="54" height="64.4"/>
		<rect x="751.3" y="148.2" class="st2" width="14.8" height="14.8"/>
		<rect x="751.3" y="167.7" class="st1" width="14.8" height="14.8"/>
		<rect x="751.3" y="186.9" class="st6" width="14.8" height="14.8"/>
		<rect x="769.7" y="150.5" class="st3" width="25.1" height="3.9"/>
		<rect x="769.7" y="157.1" class="st3" width="18.3" height="3.9"/>
		<rect x="769.7" y="169.9" class="st3" width="25.1" height="3.9"/>
		<rect x="769.7" y="176.4" class="st3" width="18.3" height="3.9"/>
		<rect x="769.7" y="188.7" class="st3" width="25.1" height="3.9"/>
		<rect x="769.7" y="195.3" class="st3" width="18.3" height="3.9"/>
	</g>
	<circle class="st25" cx="797" cy="202.2" r="14.7"/>
	<g>
		<path class="st4" d="M798.2,192.3v8.5h8.1v2.2h-8.1v8.5h-2.3V203h-8.1v-2.2h8.1v-8.5H798.2z"/>
	</g>
</g>
<g>
	<g>
		<g>
			<g>
				<g id="_Group_6_1_">
					<path id="_Path_4_1_" class="st26" d="M286.8,40.7c-4.5,0-8.1,3.6-8.1,8.1l0,0l0,0v203c0,4.5,3.6,8.2,8.1,8.2l0,0h314.6
						c4.5,0,8.1-3.6,8.1-8.1l0,0v-203c0-4.5-3.6-8.1-8.1-8.1l0,0H286.8V40.7z"/>
					<path id="_Path_5_1_" class="st27" d="M260.6,269.4h366.8c9.6,0,17.4-7.8,17.5-17.5H243.1C243.2,261.6,250.9,269.4,260.6,269.4
						z"/>
					<path id="_Path_6_1_" class="st28" d="M245.9,261.3c3.2,5,8.7,8.1,14.7,8.1h366.8c6,0.1,11.6-3,14.7-8.1H245.9z"/>
					<circle id="_Path_7_1_" class="st29" cx="274.8" cy="256.3" r="1.9"/>
					<circle id="_Path_8_1_" class="st29" cx="269.5" cy="256.3" r="2"/>
					<circle id="_Path_9_1_" class="st29" cx="263.9" cy="256.3" r="2"/>
				</g>
				<g id="_Group_2-2_1_">
					<rect x="292.2" y="53.8" class="st24" width="303.6" height="189.3"/>
				</g>
			</g>
		</g>
		<rect x="292.2" y="53.8" class="st1" width="303.6" height="63.1"/>
	</g>
	<g>
		<path class="st4" d="M350.5,86.4c0,7.6,0,15.2,0,22.8c0,1-0.1,1.3-1.3,1.1c-8.6-1.6-17.3-3.1-25.9-4.6c-0.9-0.2-1.2-0.6-1.1-1.5
			c0-12,0-24,0-36c0-1,0.3-1.3,1.2-1.4c8.6-1.5,17.3-3,25.9-4.6c1.1-0.2,1.2,0.1,1.2,1C350.5,71,350.5,78.7,350.5,86.4z M339.5,80.7
			c0-1.3,0-2.4,0-3.6c0-0.4-0.2-0.6-0.6-0.8c-3.6-1.6-7.9,0.5-8.6,4.3c-0.6,2.8,0.4,5,2.7,6.7c0.8,0.6,1.8,1.1,2.6,1.9
			c0.8,0.8,1,1.8,0.6,2.8c-0.5,1-1.5,1.1-2.5,0.9c-1.3-0.2-2.2-1-3.4-1.9c0,0.9,0,1.5,0,2.2c0,2.2,0.2,2.5,2.4,3
			c4.1,1,7-0.7,7.6-4.7c0.3-2.4-0.6-4.3-2.5-5.8c-1-0.7-2.1-1.4-3-2.1c-0.9-0.7-1.3-1.7-0.8-2.8s1.5-1.3,2.5-1.3
			C337.5,79.6,338.4,80.1,339.5,80.7z"/>
		<path class="st4" d="M353.3,73.5c0-0.7,0.1-1.4,0-2c-0.3-1.5,0.6-2.1,1.8-2.5c3-1.1,6.1,1.1,6.2,4.3c0,0.8,0.2,1.2,1,1.6
			c2.5,1.2,4.3,3.1,5.4,5.6c0.3,0.7,0.6,1.1,1.5,1.1c2.6,0.1,4.5,2.1,4.5,4.7c0,2.6-1.9,4.7-4.5,4.8c-0.9,0-1.2,0.3-1.6,1
			c-1.2,2.5-3,4.3-5.4,5.6c-0.7,0.4-1,0.8-1,1.6c0,1.8-0.8,3.2-2.5,4.1c-1.6,0.8-3.1,0.7-4.6-0.2c-0.6-0.3-0.9-0.8-0.8-1.5
			c0.1-1.7,0.1-3.4,0-5.2c0-0.6,0.2-1,0.7-1.3c1.5-1.1,3.8-1.2,5.4,0.1c0.7,0.5,1.1,0.5,1.7,0.1c1.9-1.1,3.3-2.6,4.3-4.5
			c0.3-0.6,0.3-1-0.1-1.7c-1.4-1.9-1.4-3.9,0-5.8c0.5-0.6,0.4-1.1,0.1-1.7c-1-2-2.4-3.4-4.3-4.5c-0.6-0.3-1.1-0.5-1.7,0.1
			c-0.8,0.8-1.9,1-3.1,1c-2.2-0.1-3-1-3-3.2C353.3,74.6,353.3,74,353.3,73.5z"/>
		<path class="st4" d="M481.6,86.3c0-4.4,0-8.8,0-13.3c0-0.9,0.2-1.2,1.2-1.2c2.6,0.1,5.2,0,7.8,0c4.7,0.1,8.2,2.8,8.7,6.9
			c0.7,5.1-1.8,9.3-6.6,10.7c-2.1,0.6-4.3,0.6-6.4,0.5c-1,0-1.4,0.2-1.3,1.3c0.1,2.9,0,5.8,0.1,8.6c0,0.9-0.3,1.2-1.2,1.2
			c-2.3,0-2.3,0-2.3-2.2C481.6,94.6,481.6,90.4,481.6,86.3z M485,80.7c0,1.7,0,3.4,0,5.1c0,0.4-0.2,0.9,0.5,0.9
			c2.5-0.1,5,0.3,7.4-0.9c2.2-1.1,3.3-3.3,3-6.1c-0.3-2.4-1.6-4-4-4.6c-2-0.5-4.1-0.3-6.2-0.3c-0.7,0-0.6,0.5-0.6,0.9
			C485,77.4,485,79.1,485,80.7z"/>
		<path class="st4" d="M409.2,83.1c1.7-2.1,3.7-3.3,6.3-3.5c4.4-0.3,7.3,2.3,7.5,7c0.2,4.5,0,9,0.1,13.5c0,0.6-0.2,0.8-0.8,0.8
			c-2.4,0.1-2.4,0.1-2.4-2.3c0-3.6,0.1-7.2-0.1-10.8c-0.2-3.7-1.9-5.4-4.9-5.3c-2.9,0-5.4,2.4-5.5,5.6c-0.1,3.7-0.1,7.5-0.1,11.3
			c0,0.5,0.3,1.3-0.3,1.4c-0.9,0.2-1.9,0.2-2.9,0c-0.3-0.1-0.2-0.5-0.2-0.8c0-9.6,0-19.2,0-28.9c0-0.7,0.2-0.9,0.9-0.9
			c2.5-0.1,2.5-0.1,2.5,2.4C409.2,76,409.2,79.6,409.2,83.1z"/>
		<path class="st4" d="M475.9,96.4c0.2,3.3,0.1,3.5-2.8,4.4c-2.1,0.7-4.3,0.7-6.4,0.4c-2.7-0.4-4.9-1.9-6.1-4.4c-2-4.5-2-9,0.7-13.3
			c3-4.6,9.9-5.4,13.5-1.6c2.4,2.5,2.6,5.7,2.5,8.9c0,0.8-0.7,0.5-1.1,0.5c-4.1,0-8.1,0.1-12.2,0c-1.2,0-1.4,0.4-1.2,1.5
			c0.9,4.9,5,7.1,10.2,5.2C474,97.6,474.9,97,475.9,96.4z M468.3,88.5c1.6,0,3.2,0,4.7,0c0.5,0,0.8,0.1,0.9-0.6
			c0.2-2.3-1.5-4.7-3.8-5.3c-3.3-0.9-7.1,1.9-7.4,5.4c-0.1,0.7,0.4,0.6,0.7,0.6C465.2,88.5,466.8,88.5,468.3,88.5z"/>
		<path class="st4" d="M400.2,76c-2.4-1.4-4.7-2-7.2-1.5c-1.8,0.3-3.4,1.2-3.9,3.1c-0.6,2.1,0.1,3.8,1.8,5.1c1.4,1.1,3,1.9,4.6,2.8
			c1.1,0.6,2.1,1.3,3,2.1c2.6,2,3.5,4.7,2.8,7.9c-0.7,3.1-3,4.7-5.9,5.4c-3,0.7-6,0.4-9-0.7c-0.8-0.3-1.2-0.7-1.1-1.6
			c0.1-0.9,0-1.8,0-2.9c1.8,1.3,3.7,2.1,5.7,2.4c1.4,0.3,2.7,0.1,4.1-0.3c3.1-0.9,3.9-4.7,1.6-7.2c-1.4-1.4-3.1-2.4-4.7-3.3
			c-1.6-0.9-3.1-1.9-4.4-3.1c-3.4-3.4-2.8-9,1.3-11.5c3.4-2.1,7.1-1.8,10.8-0.8c0.5,0.1,0.7,0.5,0.7,1
			C400.2,73.9,400.2,74.8,400.2,76z"/>
		<path class="st4" d="M510.2,101.3c-5.8,0.3-10.5-4.2-9.9-11.8c0.3-4.3,2.1-7.8,6.4-9.3c4.1-1.3,8.1-1.1,11.4,2.2
			c2.3,2.4,2.7,5.4,2.6,8.5c0,1.8-0.4,3.6-1.2,5.2C517.4,99.8,514.3,101.4,510.2,101.3z M510.6,82.5c-3.3,0-5.5,1.7-6.5,4.8
			c-0.7,2.2-0.7,4.4,0,6.6c1,3,3.5,4.8,6.7,4.7c3.2-0.1,5.3-1.8,6.1-5c0.6-2.1,0.5-4.3-0.1-6.4C515.9,84,513.9,82.5,510.6,82.5z"/>
		<path class="st4" d="M428.6,84.9c-0.2-3.8-0.2-3.8,3.2-4.7c1.7-0.5,3.5-0.8,5.4-0.5c3.6,0.6,5.5,2.5,5.7,6.2
			c0.2,4.7,0.1,9.5,0.1,14.2c0,0.6-0.2,0.7-0.7,0.8c-2.5,0.2-2.5,0.2-2.5-2.2c0-0.2,0.1-0.5-0.2-0.8c-1.1,1.5-2.3,2.8-4.1,3.2
			c-1.7,0.4-3.4,0.4-5.1-0.2c-2.4-0.9-3.6-2.8-3.7-5.3c-0.1-2.6,0.8-4.7,3.2-5.9c1.8-1,3.8-1.1,5.8-1.4c1.2-0.2,2.4-0.4,3.5-0.5
			c0.6-0.1,0.7-0.2,0.6-0.8c-0.3-3.6-2.3-5.1-5.9-4.4C431.9,82.9,430.2,83.6,428.6,84.9z M439.7,91.8c-0.3-0.4,0.6-1.6-0.8-1.3
			c-2.1,0.3-4.2,0.5-6.3,1c-1.1,0.3-2,0.8-2.4,2c-1.1,2.9,1.2,5.6,4.4,5C437.8,98,439.6,95.6,439.7,91.8z"/>
		<path class="st4" d="M537.1,83.2c0.4-0.1,0.5-0.4,0.6-0.6c2-2.6,5.3-3.6,8.5-2.7c2.6,0.8,4.2,3.1,4.5,6.4
			c0.4,4.6,0.1,9.2,0.2,13.8c0,0.7-0.2,0.8-0.8,0.8c-2.5,0.2-2.5,0.2-2.5-2.3c0-3.1,0-6.2,0-9.3c0-1,0-1.9-0.2-2.9
			c-0.4-1.7-1.1-3.2-3-3.7c-1.9-0.6-3.7-0.2-5.2,1.1c-1.6,1.4-2.2,3.2-2.2,5.2c0,3.5,0,7.1,0,10.6c0,1-0.2,1.5-1.3,1.3
			c-0.3-0.1-0.7-0.1-1.1,0c-0.7,0.1-1-0.2-1-1c0-6.3,0-12.6,0-19c0-0.6,0.1-0.9,0.9-0.9C537,80,537,80,537,82.5
			C537,82.7,536.8,83,537.1,83.2z"/>
		<path class="st4" d="M560.5,74.1c0,1.6,0.1,3.3,0,4.9c0,0.8,0.2,1.2,1.1,1.1c1.1-0.1,2.1,0,3.2,0c0.7,0,1,0.2,1,0.9
			c0,1.9,0.1,1.9-1.9,2c-1.1,0-2.5-0.5-3.2,0.2c-0.7,0.7-0.2,2.1-0.2,3.2c0,2.7,0,5.3,0,8c0,3.9,1.4,4.9,5.2,3.7c0,0.6,0,1.2,0,1.9
			c0.1,0.7-0.3,1-0.9,1.2c-4.4,1-7.6-0.5-7.7-5.4c-0.1-3.8-0.1-7.6,0-11.4c0-1-0.2-1.5-1.3-1.3c-0.3,0.1-0.5,0-0.8,0
			c-1.2,0.2-1.5-0.3-1.5-1.5c0-1.1,0.2-1.6,1.4-1.4c0.3,0.1,0.6,0,0.9,0c1,0.2,1.5-0.2,1.3-1.3c-0.1-0.3,0-0.7,0-1.1
			C557.1,74.6,557.1,74.6,560.5,74.1z"/>
		<path class="st4" d="M451.4,84.2c0.6-1,0.9-1.6,1.3-2.1c1.3-1.9,3.2-2.5,5.4-2.2c0.5,0.1,0.8,0.3,0.8,0.8c0,0.2,0,0.3,0,0.5
			c0,0.7,0.2,1.5-0.1,1.9s-1.1-0.2-1.7-0.3c-1.6-0.2-2.9,0.3-3.9,1.5c-1.3,1.6-1.8,3.5-1.8,5.5c0,3.3-0.1,6.5,0,9.8
			c0,1-0.3,1.4-1.2,1.2c-0.4-0.1-0.8,0-1.2,0c-0.6,0.1-0.8-0.2-0.8-0.8c0-6.4,0-12.8,0-19.2c0-0.7,0.2-0.8,0.8-0.8
			c2.4-0.1,2.4-0.1,2.4,2.3C451.4,82.8,451.4,83.3,451.4,84.2z"/>
		<path class="st4" d="M528,90.6c0,3,0,6.1,0,9.1c0,0.9-0.2,1.2-1.1,1.2c-2.1-0.1-2.1,0-2.1-2.2c0-5.8,0-11.6,0-17.3
			c0-1,0.2-1.5,1.3-1.3c0.3,0.1,0.6,0.1,0.9,0c0.8-0.1,1.1,0.2,1.1,1.1C528,84.3,528,87.4,528,90.6z"/>
		<path class="st4" d="M528.6,72.7c0,1.2-0.9,2.1-2.1,2.1c-1.3,0-2.2-0.9-2.2-2.1c0-1.2,0.9-2.2,2.2-2.2
			C527.7,70.5,528.6,71.4,528.6,72.7z"/>
	</g>
	<rect x="298" y="126.2" class="st30" width="71.3" height="107.9"/>
	<rect x="303.6" y="132" class="st6" width="59.8" height="19"/>
	<rect x="303.6" y="161.7" class="st31" width="55.5" height="6.5"/>
	<rect x="303.6" y="175.1" class="st31" width="59.8" height="6.5"/>
	<rect x="303.6" y="188.5" class="st31" width="49.6" height="6.5"/>
	<rect x="303.6" y="202.3" class="st31" width="55.5" height="6.5"/>
	<rect x="304.1" y="216.2" class="st31" width="55.5" height="6.5"/>
	<rect x="378.1" y="126.2" class="st1" width="47.1" height="47.1"/>
	<rect x="432.8" y="126.2" class="st6" width="47.1" height="47.1"/>
	<rect x="488.1" y="126.2" class="st2" width="47.1" height="47.1"/>
	<rect x="378.1" y="182.6" class="st2" width="145.3" height="50.9"/>
	<rect x="534.7" y="182.6" class="st30" width="56" height="50.9"/>
	<rect x="543.3" y="126.2" class="st11" width="47.1" height="47.1"/>
	<rect x="540.8" y="189.7" class="st31" width="44" height="6.5"/>
	<rect x="540.8" y="204.8" class="st31" width="37.3" height="6.5"/>
	<rect x="540.8" y="219.9" class="st31" width="44" height="6.5"/>
</g>
<g>
	<path class="st32" d="M233.2,240.5c1.9-1,4.4-2.4,7.2-4.5c1.8-1.4,6.1-4.9,10.1-10.7c0.5-0.7,2.6-3.9,4.7-8.9
		c1.7-4.1,4.1-10.8,4.8-19.4c0.3-3.5,0.3-6.5,0.2-8.6l-0.1-1.4l-27.1-13v-0.1l-27.1,13l-0.1,1.4c-0.1,2.1-0.1,5,0.2,8.6
		c0.7,8.6,3.1,15.3,4.8,19.4c2.1,5,4.3,8.2,4.7,8.9c3.9,5.8,8.2,9.3,10.1,10.7c2.7,2.1,5.3,3.6,7.2,4.5"/>
	<path class="st33" d="M233.2,234.8c1.6-0.8,3.7-2,6-3.8c1.5-1.2,5.1-4.1,8.4-9c0.4-0.6,2.2-3.3,4-7.4c1.5-3.4,3.5-9,4-16.3
		c0.2-3,0.3-5.4,0.2-7.2l-0.1-1.2L233,179.1V179l-22.7,10.9l-0.1,1.2c-0.1,1.7-0.1,4.2,0.2,7.2c0.6,7.2,2.6,12.8,4,16.3
		c1.8,4.2,3.6,6.8,4,7.4c3.3,4.9,6.9,7.8,8.4,9c2.3,1.8,4.4,3,6,3.8"/>
	<circle class="st4" cx="233.4" cy="206" r="13.9"/>
	<path class="st32" d="M242.4,201.1L242.4,201.1c-0.5-0.5-1.2-0.5-1.7,0l-9.6,9.6l-5.1-5.1c-0.5-0.5-1.2-0.5-1.7,0
		c-0.5,0.5-0.5,1.2,0,1.7l5.8,5.8c0.5,0.5,1.2,0.5,1.7,0c0.1-0.1,0.1-0.1,0.2-0.2c0.2-0.1,0.3-0.1,0.4-0.3l9.9-9.9
		C242.9,202.3,242.9,201.5,242.4,201.1z"/>
</g>
<g>
	<g>
		<path class="st34" d="M777.6,231.4c0-2.5-1.9-4.6-4.5-4.5c-2.4-0.1-4.4,1.8-4.6,4.2c-0.9,4.5-3.1,6-11,14.1h-2.4
			c-0.9,0-1.5,0.6-1.5,1.5V268c0,0.9,0.6,1.5,1.5,1.5H782c3.4,0,5.7-3.7,3.9-6.8c2-1.3,2.8-3.9,1.5-6.1c2-1.3,2.8-3.9,1.5-6.1
			c1.3-0.9,2.2-2.3,2.2-3.9c0-2.6-2.1-4.6-4.6-4.6h-11.1C776.7,238.2,777.6,235.4,777.6,231.4L777.6,231.4z"/>
		<path class="st1" d="M755.1,241.9H746c-0.9,0-1.5,0.6-1.5,1.5v27.4c0,0.9,0.6,1.5,1.5,1.5h9.1c0.9,0,1.5-0.6,1.5-1.5v-27.4
			C756.6,242.7,756,241.9,755.1,241.9z"/>
		<path class="st1" d="M755.1,241.9h-4.6v30.4h4.6c0.9,0,1.5-0.6,1.5-1.5v-27.4C756.6,242.7,755.9,241.9,755.1,241.9z"/>
		<path class="st35" d="M786.6,241.9h-2.5l-27.4,27.5H782c3.4,0,5.7-3.7,3.9-6.8c2-1.3,2.8-3.9,1.5-6.1c2-1.3,2.8-3.9,1.5-6.1
			c1.3-0.9,2.2-2.3,2.2-3.9C791.1,244,789.1,241.9,786.6,241.9z"/>
	</g>
	<circle class="st36" cx="750.5" cy="248.8" r="2.9"/>
</g>
<g>
	<g>
		<path class="st3" d="M575.1,281.2c-4.8,0-8.7-3.9-8.7-8.7V170.8c0-4.8,3.9-8.7,8.7-8.7h143c4.8,0,8.7,3.9,8.7,8.7v101.6
			c0,4.8-3.9,8.7-8.7,8.7H575.1z"/>
		<path class="st4" d="M718.1,163.1c4.3,0,7.7,3.5,7.7,7.7v101.6c0,4.3-3.5,7.7-7.7,7.7h-143c-4.3,0-7.7-3.5-7.7-7.7V170.8
			c0-4.3,3.5-7.7,7.7-7.7H718.1 M718.1,161.1h-143c-5.4,0-9.7,4.4-9.7,9.7v101.6c0,5.4,4.4,9.7,9.7,9.7h143c5.4,0,9.7-4.4,9.7-9.7
			V170.8C727.8,165.4,723.5,161.1,718.1,161.1L718.1,161.1z"/>
	</g>
	<path class="st24" d="M704.2,270.8H580.6c-2.6,0-4.7-2.1-4.7-4.7v-88.9c0-2.6,2.1-4.7,4.7-4.7h123.7c2.6,0,4.7,2.1,4.7,4.7v88.9
		C709,268.7,706.8,270.8,704.2,270.8z"/>
	<circle class="st24" cx="717.6" cy="220.6" r="3.4"/>
	<path class="st1" d="M580.5,172.4h123.9c2.6,0,4.6,2.1,4.6,4.6v15.1H575.8v-15.1C575.8,174.5,577.9,172.4,580.5,172.4z"/>
	<rect x="582.4" y="198.6" class="st1" width="23.1" height="23.1"/>
	<rect x="614.8" y="198.6" class="st6" width="23.1" height="23.1"/>
	<rect x="646.6" y="198.6" class="st2" width="23.1" height="23.1"/>
	<rect x="678.5" y="198.6" class="st11" width="23.1" height="23.1"/>
	<rect x="582.4" y="229.5" class="st2" width="119.2" height="16.2"/>
	<rect x="582.4" y="252.6" class="st31" width="110.5" height="4.2"/>
	<rect x="582.4" y="261.5" class="st31" width="85" height="4.2"/>
</g>
<path class="st4" d="M588.8,182.4c0,2.3,0,4.6,0,6.9c0,0.3,0,0.4-0.4,0.3c-2.6-0.5-5.2-0.9-7.8-1.4c-0.3,0-0.4-0.2-0.3-0.4
	c0-3.6,0-7.2,0-10.9c0-0.3,0.1-0.4,0.4-0.4c2.6-0.5,5.2-0.9,7.8-1.4c0.3-0.1,0.4,0,0.4,0.3C588.8,177.7,588.8,180,588.8,182.4z
	 M585.5,180.7c0-0.4,0-0.7,0-1.1c0-0.1-0.1-0.2-0.2-0.2c-1.1-0.5-2.4,0.2-2.6,1.3c-0.2,0.8,0.1,1.5,0.8,2c0.3,0.2,0.5,0.3,0.8,0.6
	c0.2,0.2,0.3,0.5,0.2,0.8c-0.1,0.3-0.4,0.3-0.8,0.3c-0.4-0.1-0.7-0.3-1-0.6c0,0.3,0,0.5,0,0.7c0,0.7,0.1,0.7,0.7,0.9
	c1.2,0.3,2.1-0.2,2.3-1.4c0.1-0.7-0.2-1.3-0.7-1.7c-0.3-0.2-0.6-0.4-0.9-0.6c-0.3-0.2-0.4-0.5-0.2-0.8c0.1-0.3,0.4-0.4,0.8-0.4
	C584.9,180.3,585.2,180.5,585.5,180.7z"/>
<path class="st4" d="M589.7,178.5c0-0.2,0-0.4,0-0.6c-0.1-0.4,0.2-0.6,0.5-0.8c0.9-0.3,1.9,0.3,1.9,1.3c0,0.2,0.1,0.4,0.3,0.5
	c0.7,0.4,1.3,0.9,1.6,1.7c0.1,0.2,0.2,0.3,0.5,0.3c0.8,0,1.4,0.6,1.4,1.4c0,0.8-0.6,1.4-1.3,1.4c-0.3,0-0.4,0.1-0.5,0.3
	c-0.4,0.7-0.9,1.3-1.6,1.7c-0.2,0.1-0.3,0.2-0.3,0.5c0,0.6-0.3,1-0.7,1.2c-0.5,0.3-0.9,0.2-1.4-0.1c-0.2-0.1-0.3-0.2-0.3-0.4
	c0-0.5,0-1,0-1.6c0-0.2,0.1-0.3,0.2-0.4c0.5-0.3,1.1-0.4,1.6,0c0.2,0.2,0.3,0.1,0.5,0c0.6-0.3,1-0.8,1.3-1.4c0.1-0.2,0.1-0.3,0-0.5
	c-0.4-0.6-0.4-1.2,0-1.7c0.1-0.2,0.1-0.3,0-0.5c-0.3-0.6-0.7-1-1.3-1.4c-0.2-0.1-0.3-0.1-0.5,0c-0.3,0.2-0.6,0.3-0.9,0.3
	c-0.7,0-0.9-0.3-0.9-1C589.7,178.8,589.7,178.6,589.7,178.5z"/>
<line class="st37" x1="488" y1="19.4" x2="579" y2="19.4"/>
<line class="st37" x1="408" y1="19.4" x2="334" y2="19.4"/>
<image style="overflow:visible;" width="225" height="224" xlink:href="download (1).png"  transform="matrix(1 0 0 1 -180 456)">
</image>
</svg>
